<?xml version="1.0" standalone="no"?>
<!DOCTYPE svg PUBLIC "-//W3C//DTD SVG 20010904//EN"
 "http://www.w3.org/TR/2001/REC-SVG-20010904/DTD/svg10.dtd">
<svg version="1.0" xmlns="http://www.w3.org/2000/svg"
 width="225.000000pt" height="225.000000pt" viewBox="0 0 225.000000 225.000000"
 preserveAspectRatio="xMidYMid meet">
<metadata>
Created by potrace 1.16, written by Peter Selinger 2001-2019
</metadata>
<g transform="translate(0.000000,225.000000) scale(0.100000,-0.100000)"
fill="#000000" stroke="none">
<path d="M75 2081 c-11 -5 -31 -21 -45 -36 l-25 -27 0 -894 0 -894 33 -32 32
-33 1055 0 1055 0 32 33 33 32 0 895 0 895 -33 32 -32 33 -1043 2 c-573 1
-1051 -2 -1062 -6z m1935 -106 l0 -45 -725 0 -725 0 0 45 0 45 725 0 725 0 0
-45z m170 -913 c0 -665 -2 -791 -14 -808 -14 -19 -36 -19 -1041 -19 -1005 0
-1027 0 -1041 19 -12 17 -14 143 -14 808 l0 788 1055 0 1055 0 0 -788z"/>
<path d="M176 1754 c-21 -21 -20 -41 3 -54 13 -7 327 -10 946 -10 619 0 933 3
946 10 23 13 24 33 3 54 -14 14 -114 16 -949 16 -835 0 -935 -2 -949 -16z"/>
<path d="M1137 1514 c-4 -4 -7 -108 -7 -232 l0 -224 -36 32 c-42 37 -77 37
-82 1 -3 -18 12 -40 64 -92 41 -41 77 -69 89 -69 12 0 48 28 89 69 52 52 67
74 64 92 -5 36 -40 36 -82 -1 l-36 -32 -2 229 -3 228 -25 3 c-14 2 -29 0 -33
-4z"/>
<path d="M531 1422 c-18 -33 5 -52 63 -52 31 0 58 -5 63 -12 5 -7 56 -137 112
-288 57 -151 107 -280 111 -285 5 -6 -3 -29 -20 -56 -24 -40 -34 -47 -70 -53
-27 -4 -53 -17 -71 -36 -24 -24 -29 -37 -29 -78 0 -42 5 -55 30 -80 51 -51
127 -47 174 8 l25 30 226 0 227 0 21 -26 c52 -67 156 -63 193 8 24 47 18 105
-14 138 -54 54 -150 45 -182 -15 l-13 -25 -231 0 c-214 0 -232 1 -243 18 -9
15 -6 28 18 68 16 27 33 48 38 47 27 -7 569 70 588 83 51 33 54 47 51 260 l-3
199 -150 0 c-136 0 -150 -2 -153 -18 -8 -39 15 -47 129 -47 l109 0 0 -159 c0
-115 -3 -161 -12 -169 -13 -10 -475 -72 -536 -72 -20 0 -35 7 -41 18 -12 22
-141 366 -141 375 0 4 49 7 109 7 114 0 137 8 129 47 -3 16 -18 19 -137 23
l-133 5 -20 50 c-10 28 -32 62 -48 78 -27 24 -38 27 -95 27 -51 0 -66 -4 -74
-18z"/>
</g>
</svg>
