<?xml version="1.0" standalone="no"?>
<!DOCTYPE svg PUBLIC "-//W3C//DTD SVG 20010904//EN"
 "http://www.w3.org/TR/2001/REC-SVG-20010904/DTD/svg10.dtd">
<svg version="1.0" xmlns="http://www.w3.org/2000/svg"
 width="225.000000pt" height="225.000000pt" viewBox="0 0 225.000000 225.000000"
 preserveAspectRatio="xMidYMid meet">
<metadata>
Created by potrace 1.16, written by Peter Selinger 2001-2019
</metadata>
<g transform="translate(0.000000,225.000000) scale(0.100000,-0.100000)"
fill="#000000" stroke="none">
<path d="M721 2237 c-6 -8 -12 -75 -13 -168 l-3 -154 -129 -3 c-75 -1 -135 -7
-143 -14 -10 -8 -13 -127 -13 -609 l0 -599 -70 0 c-115 0 -110 17 -110 -343 0
-258 2 -306 16 -325 l15 -22 854 0 854 0 15 22 c14 19 16 67 16 325 0 360 5
343 -110 343 l-70 0 0 599 c0 482 -3 601 -13 609 -8 7 -68 13 -143 14 l-129 3
-3 154 c-1 93 -7 160 -13 168 -17 19 -791 19 -808 0z m729 -97 c0 -20 -7 -20
-325 -20 -318 0 -325 0 -325 20 0 20 7 20 325 20 318 0 325 0 325 -20z m0
-170 l0 -60 -100 0 c-88 0 -100 -2 -110 -19 -6 -13 -10 -222 -10 -610 l0 -591
-105 0 -105 0 0 591 c0 388 -4 597 -10 610 -10 17 -22 19 -110 19 l-100 0 0
60 0 60 325 0 325 0 0 -60z m-520 -715 l0 -565 -210 0 -210 0 0 565 0 565 210
0 210 0 0 -565z m810 0 l0 -565 -210 0 -210 0 0 565 0 565 210 0 210 0 0 -565z
m170 -820 l0 -155 -290 0 -290 0 0 55 c0 92 -8 95 -205 95 -197 0 -205 -3
-205 -95 l0 -55 -290 0 -290 0 0 155 0 155 785 0 785 0 0 -155z m-680 -225 l0
-120 -105 0 -105 0 0 120 0 120 105 0 105 0 0 -120z m-310 -70 l0 -50 -290 0
-290 0 0 50 0 50 290 0 290 0 0 -50z m990 0 l0 -50 -290 0 -290 0 0 50 0 50
290 0 290 0 0 -50z"/>
</g>
</svg>
