<?xml version="1.0" standalone="no"?>
<!DOCTYPE svg PUBLIC "-//W3C//DTD SVG 20010904//EN"
 "http://www.w3.org/TR/2001/REC-SVG-20010904/DTD/svg10.dtd">
<svg version="1.0" xmlns="http://www.w3.org/2000/svg"
 width="512.000000pt" height="512.000000pt" viewBox="0 0 512.000000 512.000000"
 preserveAspectRatio="xMidYMid meet">
<metadata>
Created by potrace 1.16, written by Peter Selinger 2001-2019
</metadata>
<g transform="translate(0.000000,512.000000) scale(0.100000,-0.100000)"
fill="#000000" stroke="none">
<path d="M2974 5097 c-78 -42 -1488 -1082 -1503 -1109 l-15 -26 -172 -4 -172
-3 -44 -30 c-67 -48 -89 -95 -86 -181 4 -78 27 -125 80 -160 l28 -19 0 -285 0
-286 -140 -314 -141 -315 3 -251 3 -251 30 -49 c18 -29 50 -61 77 -79 l47 -30
0 -646 1 -646 -41 -6 c-43 -6 -97 -42 -132 -90 -23 -29 -33 -114 -23 -172 8
-43 68 -113 113 -132 27 -11 321 -13 1678 -13 1614 0 1647 0 1684 20 145 73
148 287 6 367 -22 13 -52 23 -67 23 l-28 0 0 648 0 647 36 20 c20 11 51 37 70
59 56 65 64 111 64 353 l0 213 -145 326 -145 327 0 281 0 282 30 17 c35 21 75
87 84 139 11 59 -12 125 -58 173 -52 54 -90 65 -235 65 l-113 0 6 33 c14 83
18 240 7 336 -40 342 -209 586 -512 740 -91 47 -106 51 -167 51 -49 -1 -78 -7
-108 -23z m203 -173 c95 -50 205 -136 259 -203 61 -75 129 -218 149 -314 19
-88 24 -252 12 -369 l-9 -78 -59 0 -59 0 0 123 c0 251 -67 445 -212 619 -42
51 -180 160 -235 186 -18 9 -33 18 -33 21 1 14 67 51 92 51 14 0 57 -16 95
-36z m-199 -200 c40 -25 101 -74 135 -108 138 -139 197 -303 197 -548 0 -105
-1 -108 -22 -108 -33 -1 -99 -33 -125 -61 -45 -50 -53 -88 -53 -264 0 -152 -2
-167 -20 -185 -25 -25 -52 -26 -73 -2 -12 14 -16 50 -19 192 -3 159 -5 179
-26 217 -12 24 -41 55 -64 70 -35 24 -52 28 -108 28 -56 0 -73 -4 -108 -28
-67 -44 -85 -90 -90 -232 -3 -89 -8 -124 -20 -137 -20 -24 -47 -23 -72 2 -18
18 -20 33 -20 130 0 118 -12 164 -53 209 -75 81 -249 81 -324 0 -48 -53 -53
-83 -53 -331 0 -253 -5 -278 -54 -278 -51 0 -54 16 -58 280 -3 232 -4 247 -26
287 -31 60 -85 92 -163 101 l-64 7 214 156 214 156 37 -37 c65 -65 120 -85
235 -85 92 0 104 2 153 29 155 86 220 274 149 430 -15 33 -24 63 -19 68 5 5
42 33 83 62 74 54 74 54 109 40 19 -9 68 -36 108 -60z m-428 -174 c16 -31 14
-113 -4 -148 -51 -99 -198 -123 -269 -44 -18 19 -15 22 114 116 72 53 135 96
140 96 5 0 13 -9 19 -20z m-776 -766 c9 -8 16 -31 16 -50 l0 -34 -297 0 c-320
0 -345 4 -351 50 -7 47 9 50 324 50 253 0 295 -2 308 -16z m2197 6 c26 -14 24
-55 -3 -74 -19 -14 -71 -16 -360 -16 l-338 0 0 38 c0 21 5 43 12 50 16 16 660
17 689 2z m-2181 -377 c0 -123 1 -130 30 -179 68 -120 246 -140 342 -38 47 51
58 92 58 224 l0 120 58 0 57 0 25 -47 c82 -155 320 -146 387 14 12 29 18 33
52 33 l39 0 4 -69 c5 -87 37 -139 111 -176 154 -77 317 27 317 203 l0 42 305
0 305 0 0 -245 0 -245 -1315 0 -1315 0 0 245 0 245 270 0 270 0 0 -127z m-430
-529 c0 -4 -5 -24 -11 -45 -16 -53 2 -94 46 -109 55 -18 85 4 116 87 l26 68
72 3 c59 2 71 0 71 -13 0 -13 -63 -272 -101 -417 l-10 -38 -95 0 -96 0 8 28
c23 79 -5 132 -70 132 -46 0 -62 -16 -90 -90 l-24 -65 -95 -3 -96 -3 100 223
c56 123 103 229 106 236 5 12 143 18 143 6z m614 -216 c-19 -123 -34 -229 -34
-235 0 -10 -27 -13 -101 -13 -100 0 -101 0 -95 23 3 12 29 118 57 235 l51 212
77 0 78 0 -33 -222z m352 195 c-3 -16 -8 -109 -11 -208 -3 -99 -8 -192 -11
-207 l-6 -28 -99 0 -100 0 6 33 c3 17 16 109 30 202 14 94 27 185 30 203 l6
32 80 0 81 0 -6 -27z m328 -150 c4 -98 9 -204 13 -235 l6 -58 -104 0 -104 0
12 232 c6 128 12 234 12 236 1 1 36 2 80 2 l78 0 7 -177z m342 -43 c18 -118
33 -223 33 -232 1 -16 -10 -18 -98 -18 l-98 0 -6 78 c-4 42 -9 148 -13 235
l-7 158 79 -3 78 -3 32 -215z m293 183 c25 -93 101 -409 101 -421 0 -10 -23
-12 -97 -10 l-98 3 -32 210 c-17 116 -32 220 -32 233 -1 21 3 22 74 22 l74 0
10 -37z m314 20 c2 -10 39 -116 80 -235 l75 -218 -98 0 -98 0 -56 230 c-31
127 -56 232 -56 235 0 3 33 5 74 5 62 0 74 -3 79 -17z m413 -218 l103 -230
-91 -3 c-50 -1 -93 -1 -95 2 -5 4 -163 455 -163 463 0 2 32 3 72 1 l71 -3 103
-230z m-2836 -555 c0 -172 -7 -203 -52 -234 -41 -29 -104 -17 -140 28 -15 18
-18 45 -18 194 l0 172 105 0 105 0 0 -160z m370 -11 l0 -171 -34 -34 c-45 -45
-92 -47 -138 -5 l-33 29 -3 176 -3 176 105 0 106 0 0 -171z m379 19 c0 -91 -5
-167 -12 -188 -26 -76 -133 -92 -181 -27 -19 26 -21 44 -24 198 l-3 169 110 0
111 0 -1 -152z m369 -24 l-3 -176 -33 -29 c-37 -33 -79 -38 -122 -12 -45 26
-50 51 -50 228 l0 165 106 0 105 0 -3 -176z m372 5 l0 -171 -34 -34 c-45 -45
-92 -47 -138 -5 l-33 29 -3 176 -3 176 105 0 106 0 0 -171z m380 16 c0 -112
-4 -165 -14 -190 -15 -35 -59 -65 -96 -65 -37 0 -81 30 -96 65 -10 25 -14 78
-14 190 l0 155 110 0 110 0 0 -155z m368 -21 l-3 -176 -33 -29 c-46 -42 -93
-40 -138 5 l-34 34 0 171 0 171 106 0 105 0 -3 -176z m372 11 c0 -97 -4 -174
-11 -188 -23 -50 -102 -73 -147 -41 -45 31 -52 62 -52 234 l0 160 105 0 105 0
0 -165z m378 -4 c-3 -154 -5 -172 -24 -198 -48 -65 -155 -49 -181 27 -7 21
-12 97 -12 188 l-1 152 111 0 110 0 -3 -169z m-2892 -342 c3 -6 30 -22 58 -35
84 -39 186 -31 264 22 l34 22 34 -23 c85 -58 208 -60 294 -7 l49 31 25 -20
c85 -67 250 -63 328 8 17 15 19 15 36 0 78 -71 243 -75 328 -8 l25 20 51 -32
c47 -30 58 -32 138 -32 80 0 91 2 138 32 l51 32 25 -20 c85 -67 250 -63 328 8
17 15 19 15 36 0 78 -71 243 -75 329 -7 l25 20 29 -20 c15 -11 44 -27 63 -35
l36 -15 0 -640 0 -640 -65 0 -65 0 0 139 c0 125 -2 141 -21 165 -27 34 -82 36
-116 4 -22 -21 -23 -28 -23 -165 l0 -143 -375 0 -376 0 3 453 c3 505 2 493 73
523 52 21 564 20 606 -1 62 -33 69 -59 69 -265 0 -147 3 -190 15 -207 32 -46
113 -36 135 17 8 19 10 93 8 231 -3 233 -8 250 -91 326 -76 70 -107 75 -464
71 -342 -3 -345 -4 -421 -72 -22 -20 -50 -60 -63 -89 -24 -52 -24 -52 -27
-519 l-3 -468 -835 0 -834 0 0 640 0 639 50 22 c27 12 55 27 61 35 14 17 25
18 35 3z m2915 -1520 c8 -16 8 -28 0 -45 l-11 -24 -1613 0 c-1241 0 -1616 3
-1625 12 -15 15 -15 51 0 66 9 9 384 12 1625 12 l1612 0 12 -21z"/>
<path d="M2858 4690 c-18 -13 -31 -40 -42 -86 -20 -77 -11 -114 30 -133 64
-29 106 3 127 95 17 74 12 103 -25 128 -30 21 -60 20 -90 -4z"/>
<path d="M2923 4374 c-85 -42 -138 -153 -114 -239 23 -85 71 -133 155 -156 81
-22 176 15 226 88 33 48 40 154 15 204 -41 80 -104 119 -192 119 -33 0 -72 -7
-90 -16z"/>
<path d="M2502 4056 c-38 -36 -46 -50 -46 -80 0 -49 30 -78 79 -78 30 0 45 7
76 39 21 21 41 52 45 70 5 27 1 37 -24 63 -43 43 -73 39 -130 -14z"/>
<path d="M1937 4078 c-27 -22 -39 -66 -25 -96 28 -59 157 -93 198 -52 25 25
26 81 3 108 -37 41 -142 65 -176 40z"/>
<path d="M1326 1550 c-15 -5 -37 -17 -48 -27 -46 -40 -48 -61 -48 -448 0 -395
0 -394 55 -445 l27 -25 644 -3 c711 -3 679 -5 726 60 l23 33 0 380 c0 355 -1
382 -19 411 -10 17 -33 40 -50 50 -29 18 -63 19 -656 21 -344 1 -638 -2 -654
-7z m564 -470 l0 -320 -250 0 -250 0 0 320 0 320 250 0 250 0 0 -320z m660 0
l0 -320 -250 0 -250 0 0 320 0 320 250 0 250 0 0 -320z"/>
<path d="M3112 1303 c-53 -26 -62 -55 -62 -204 l0 -131 34 -34 34 -34 211 0
c237 0 257 4 285 64 23 50 23 238 -2 286 -31 62 -61 70 -277 70 -155 0 -196
-3 -223 -17z m358 -193 l0 -50 -130 0 -130 0 0 50 0 50 130 0 130 0 0 -50z"/>
<path d="M3070 690 c-26 -26 -26 -80 -1 -111 19 -24 21 -24 260 -27 l242 -3
29 30 c35 35 38 68 9 105 l-20 26 -250 0 c-236 0 -250 -1 -269 -20z"/>
</g>
</svg>
